# xmcd
#
# Track frame offsets: 
#        151
#        19616
#        35842
#        63449
#        94034
#        115216
#        139012
#        159605
#        185424
#        210162
#        228787
#
# Disc length: 3441 seconds
#
# Revision: 2
# Processed by: cddbd v1.5.2PL0 Copyright (c) Steve Scherf et al.
# Submitted via: ExactAudioCopy v0.99pb4
#
DISCID=890d6f0b
DTITLE=Hittar Cuesta - El Lenguaje de los Espiritus
DYEAR=2000
DGENRE=Rock Latino
TTITLE0=Aves de Acero
TTITLE1=Dimensiones
TTITLE2=Danza de Almas
TTITLE3=Oculta Dama
TTITLE4=Lidian para Satriani
TTITLE5=Cazador de Vidas
TTITLE6=Laberinto
TTITLE7=Holocausto
TTITLE8=Extraño Visitante
TTITLE9=Encrucijada
TTITLE10=Viajando a lo Desconocido
EXTD=YEAR: 2000
EXTT0=
EXTT1=
EXTT2=
EXTT3=
EXTT4=
EXTT5=
EXTT6=
EXTT7=
EXTT8=
EXTT9=
EXTT10=
PLAYORDER=
